<svg width="26" height="25" viewBox="0 0 26 25" fill="none" xmlns="http://www.w3.org/2000/svg">
<g clip-path="url(#clip0_11_72)">
<path d="M9.5233 1.70724C7.06068 2.51774 4.93691 4.05609 3.46395 6.09633C1.99099 8.13658 1.24648 10.5712 1.33977 13.0425C1.43307 15.5139 2.35925 17.8917 3.98228 19.8268C5.60531 21.7618 7.83963 23.1521 10.3571 23.7934C12.398 24.293 14.5363 24.3149 16.5882 23.8573C18.4469 23.4612 20.1654 22.6139 21.5754 21.3984C23.0428 20.0947 24.1079 18.4362 24.6562 16.6012C25.2522 14.6057 25.3583 12.5072 24.9663 10.4668H13.5054V14.9772H20.1427C20.0101 15.6966 19.7258 16.3832 19.307 16.9959C18.8881 17.6086 18.3432 18.1348 17.705 18.5431C16.8945 19.0518 15.9808 19.394 15.0227 19.5479C14.0617 19.7174 13.0761 19.7174 12.1151 19.5479C11.1411 19.3568 10.2198 18.9754 9.4097 18.428C8.10831 17.5541 7.13114 16.3124 6.61764 14.8804C6.09546 13.4215 6.09546 11.8398 6.61764 10.3809C6.98316 9.35831 7.58741 8.42722 8.3853 7.65716C9.29838 6.75973 10.4544 6.11825 11.7264 5.80309C12.9985 5.48792 14.3375 5.51126 15.5965 5.87054C16.58 6.15697 17.4794 6.65741 18.223 7.33199C18.9714 6.62562 19.7185 5.91743 20.4643 5.20741C20.8494 4.8256 21.2692 4.46207 21.6485 4.07113C20.5135 3.06908 19.1813 2.28936 17.7281 1.77666C15.0818 0.865061 12.1863 0.840563 9.5233 1.70724Z" fill="white"/>
<path d="M9.52331 1.70726C12.1861 0.839992 15.0816 0.863845 17.7281 1.77485C19.1815 2.29104 20.5132 3.07451 21.6466 4.08028C21.2615 4.47122 20.8552 4.83658 20.4624 5.21656C19.7153 5.92414 18.9688 6.62929 18.223 7.332C17.4794 6.65743 16.58 6.15698 15.5965 5.87055C14.3379 5.51002 12.999 5.48533 11.7266 5.7992C10.4542 6.11308 9.29746 6.75338 8.38338 7.64987C7.58549 8.41993 6.98124 9.35102 6.61572 10.3736L2.62404 7.44161C4.05282 4.75357 6.52666 2.69743 9.52331 1.70726Z" fill="#E33629"/>
<path d="M1.56499 10.3462C1.77954 9.33746 2.13573 8.36054 2.62404 7.4416L6.61572 10.3809C6.09354 11.8398 6.09354 13.4215 6.61572 14.8804C5.28581 15.8547 3.95525 16.8338 2.62404 17.8179C1.40161 15.5094 1.02878 12.8791 1.56499 10.3462Z" fill="#F8BD00"/>
<path d="M13.5053 10.465H24.9663C25.3583 12.5054 25.2522 14.6039 24.6562 16.5994C24.1079 18.4344 23.0428 20.0929 21.5754 21.3966C20.2872 20.443 18.9932 19.4967 17.705 18.5431C18.3437 18.1344 18.8888 17.6076 19.3076 16.9942C19.7265 16.3809 20.0106 15.6936 20.1427 14.9735H13.5053C13.5034 13.4719 13.5053 11.9684 13.5053 10.465Z" fill="#587DBD"/>
<path d="M2.62212 17.8179C3.95332 16.8436 5.28388 15.8644 6.61379 14.8803C7.12832 16.3129 8.10688 17.5546 9.4097 18.428C10.2223 18.9729 11.1456 19.3511 12.1209 19.5387C13.0818 19.7082 14.0675 19.7082 15.0285 19.5387C15.9866 19.3848 16.9003 19.0426 17.7108 18.534C18.999 19.4876 20.2929 20.4338 21.5811 21.3874C20.1714 22.6036 18.4529 23.4515 16.594 23.8481C14.5421 24.3058 12.4038 24.2838 10.3629 23.7842C8.74866 23.3753 7.2409 22.6545 5.93407 21.6669C4.55087 20.6251 3.42114 19.3121 2.62212 17.8179Z" fill="#319F43"/>
</g>
<defs>
<clipPath id="clip0_11_72">
<rect x="0.937248" y="0.938141" width="24.6471" height="23.3832" rx="11.6916" fill="white"/>
</clipPath>
</defs>
</svg>
